PathFileType	4	(X/Y/Z)	C:/Users/empri/Downloads/Take 2024-05-09 02.19.42 PM.trc
DataRate	CameraRate	NumFrames	NumMarkers	Units	OrigDataRate	OrigDataStartFrame	OrigNumFrames
240	240	22	9	mm	240	159	1279
Frame#	Time	C7	CLAV	RELB	RFIN	RFRM	RSHO	RUPA	RWRA	RWRB
X1	Y1	Z1	X2	Y2	Z2	X3	Y3	Z3	X4	Y4	Z4	X5	Y5	Z5	X6	Y6	Z6	X7	Y7	Z7	X8	Y8	Z8	X9	Y9	Z9
159	0.663	-128.52	1542.71	-46.4193	30.8227	1369.17	-138.938	94.8174	1148.99	137.136	166.152	847.759	26.1855	108.238	1025.08	155.211	21.7388	1481.12	67.7017	58.6936	1324.29	137.048	117.282	921.318	41.3479	95.0125	889.646	129.484
160	0.667	-128.529	1542.71	-46.4941	30.8231	1369.17	-138.951	94.7634	1149.15	137.538	166.525	848.087	26.6553	108.326	1025.34	155.688	21.6911	1481.12	67.6705	58.5987	1324.38	137.125	117.51	921.542	41.754	95.2169	889.813	129.839
161	0.671	-128.541	1542.71	-46.5524	30.8188	1369.16	-138.963	94.6685	1149.27	137.93	166.891	848.414	27.0621	108.369	1025.52	156.155	21.6426	1481.12	67.6353	58.5146	1324.46	137.213	117.757	921.784	42.203	95.4464	890.014	130.242
162	0.675	-128.553	1542.71	-46.6038	30.8178	1369.15	-138.985	94.573	1149.4	138.372	167.257	848.715	27.5057	108.389	1025.68	156.606	21.5973	1481.12	67.5985	58.4462	1324.53	137.301	118.004	922.023	42.6458	95.707	890.219	130.693
163	0.679	-128.573	1542.71	-46.6661	30.8309	1369.15	-139.003	94.4903	1149.52	138.787	167.654	849.04	28.0318	108.425	1025.88	157.054	21.543	1481.13	67.5584	58.363	1324.62	137.406	118.298	922.277	43.1227	96.0187	890.39	131.126
164	0.683	-128.589	1542.72	-46.7229	30.8398	1369.16	-139.028	94.4278	1149.76	139.253	168.027	849.352	28.475	108.486	1026.11	157.522	21.503	1481.15	67.5206	58.271	1324.72	137.53	118.57	922.573	43.5875	96.2957	890.61	131.553
165	0.688	-128.609	1542.73	-46.7791	30.8397	1369.17	-139.048	94.3631	1150.01	139.818	168.521	849.834	29.0349	108.63	1026.45	158.186	21.4301	1481.17	67.4818	58.1614	1324.87	137.718	118.891	922.894	44.2086	96.6783	890.934	132.143
166	0.692	-128.624	1542.73	-46.8264	30.8396	1369.17	-139.06	94.2985	1150.18	140.281	168.94	850.243	29.5389	108.722	1026.68	158.719	21.3873	1481.19	67.4568	58.072	1324.98	137.885	119.177	923.183	44.7005	96.9631	891.148	132.6
167	0.696	-128.643	1542.74	-46.8824	30.8302	1369.17	-139.074	94.2711	1150.37	140.8	169.364	850.586	30.0236	108.819	1026.91	159.208	21.344	1481.21	67.4247	57.9728	1325.11	138.059	119.453	923.484	45.2141	97.266	891.434	133.131
168	0.7	-128.661	1542.74	-46.9382	30.8315	1369.17	-139.094	94.2007	1150.55	141.293	169.751	850.924	30.4975	108.941	1027.16	159.7	21.303	1481.24	67.4	57.8996	1325.24	138.24	119.67	923.715	45.7142	97.6025	891.682	133.642
169	0.704	-128.678	1542.74	-46.9925	30.8349	1369.17	-139.118	94.145	1150.72	141.747	170.171	851.313	31.0013	109.097	1027.46	160.22	21.2651	1481.26	67.3602	57.8646	1325.41	138.446	119.952	924.047	46.2509	97.9899	891.886	134.103
170	0.708	-128.702	1542.74	-47.0519	30.8368	1369.16	-139.134	94.1517	1151.01	142.249	170.653	851.771	31.5275	109.288	1027.8	160.793	21.2177	1481.29	67.3308	57.8262	1325.55	138.618	120.333	924.434	46.7888	98.3621	892.159	134.616
171	0.713	-128.743	1542.75	-47.1447	30.828	1369.16	-139.149	94.1423	1151.29	142.873	171.163	852.31	32.1488	109.458	1028.12	161.457	21.1545	1481.34	67.2827	57.7777	1325.73	138.833	120.691	924.801	47.4214	98.8089	892.478	135.308
172	0.717	-128.769	1542.75	-47.2108	30.827	1369.16	-139.162	94.1132	1151.49	143.379	171.608	852.741	32.6691	109.577	1028.37	161.986	21.1059	1481.36	67.2479	57.7351	1325.88	139.002	120.976	925.098	47.9742	99.1714	892.742	135.869
173	0.721	-128.813	1542.72	-47.282	30.8207	1369.14	-139.188	94.1373	1151.75	143.898	172.032	853.1	33.187	109.751	1028.65	162.568	21.047	1481.4	67.2151	57.6857	1326.04	139.187	121.306	925.39	48.5645	99.5382	893.003	136.376
174	0.725	-128.847	1542.73	-47.347	30.8221	1369.14	-139.192	94.1064	1151.97	144.396	172.548	853.567	33.7507	109.919	1028.96	163.159	20.9793	1481.43	67.1757	57.5623	1326.19	139.365	121.623	925.704	49.1299	99.9418	893.308	136.952
175	0.729	-128.867	1542.73	-47.4171	30.8144	1369.13	-139.222	94.0699	1152.23	144.899	173.045	854.034	34.3527	110.058	1029.23	163.691	20.928	1481.47	67.0925	57.6012	1326.39	139.589	121.936	926.048	49.6944	100.338	893.556	137.528
176	0.733	-128.898	1542.74	-47.484	30.8188	1369.13	-139.243	94.1018	1152.54	145.474	173.534	854.5	34.923	110.205	1029.54	164.26	20.8624	1481.53	67.0605	57.541	1326.56	139.78	122.3	926.421	50.2954	100.739	893.861	138.157
177	0.738	-128.932	1542.73	-47.5697	30.8218	1369.13	-139.246	94.1349	1152.81	146.097	174.182	855.09	35.6617	110.477	1030.02	165.086	20.7768	1481.59	67.0262	57.4655	1326.75	140.013	122.698	926.81	51.0722	101.205	894.143	138.8
178	0.742	-128.962	1542.73	-47.6419	30.8229	1369.13	-139.257	94.1709	1153.05	146.606	174.709	855.539	36.2906	110.616	1030.23	165.659	20.7087	1481.64	67.0003	57.414	1326.9	140.192	122.984	927.123	51.6676	101.624	894.407	139.403
179	0.746	-128.989	1542.74	-47.7188	30.8236	1369.13	-139.249	94.1852	1153.28	147.142	175.24	856.054	36.9276	110.753	1030.51	166.232	20.6441	1481.69	66.9665	57.3525	1327.1	140.393	123.357	927.519	52.3257	102.059	894.713	140.044
180	0.75	-129.014	1542.75	-47.7857	30.8267	1369.13	-139.264	94.1788	1153.56	147.753	175.775	856.548	37.5304	110.914	1030.81	166.822	20.583	1481.75	66.9402	57.3041	1327.28	140.563	123.748	927.864	52.9423	102.432	895.069	140.675
